<svg width="24" height="24" viewBox="0 0 17 17" fill="none" xmlns="http://www.w3.org/2000/svg">
    <path fill-rule="evenodd" clip-rule="evenodd" d="M3.25384 9.42413C3.12551 9.25771 3.02006 9.1135 2.93966 9.00028C3.02006 8.88707 3.12551 8.74286 3.25384 8.57644C3.58074 8.15249 4.05284 7.58856 4.63419 7.02638C5.81672 5.88282 7.3614 4.83362 9.00065 4.83362C10.6399 4.83362 12.1846 5.88282 13.3671 7.02638C13.9485 7.58856 14.4206 8.15249 14.7475 8.57644C14.8758 8.74286 14.9812 8.88707 15.0616 9.00028C14.9812 9.1135 14.8758 9.25771 14.7475 9.42413C14.4206 9.84808 13.9485 10.412 13.3671 10.9742C12.1846 12.1177 10.6399 13.167 9.00065 13.167C7.3614 13.167 5.81672 12.1177 4.63419 10.9742C4.05284 10.412 3.58074 9.84808 3.25384 9.42413ZM16.0883 8.7306C16.0884 8.73075 16.0885 8.73088 15.6673 9.00029C16.0885 9.26969 16.0884 9.26982 16.0883 9.26997L16.0881 9.27037L16.0874 9.27147L16.0852 9.27494L16.0774 9.28685L16.0491 9.32982C16.0245 9.36669 15.9887 9.41966 15.9423 9.48642C15.8494 9.61989 15.7136 9.80883 15.5394 10.0348C15.1916 10.4858 14.6874 11.0886 14.0623 11.693C12.8319 12.8828 11.0433 14.167 9.00065 14.167C6.95801 14.167 5.16935 12.8828 3.93903 11.693C3.31394 11.0886 2.80973 10.4858 2.46193 10.0348C2.28771 9.80883 2.15192 9.61989 2.05903 9.48642C2.01257 9.41966 1.97678 9.36669 1.95223 9.32982L1.92388 9.28685L1.91615 9.27494L1.91391 9.27147L1.9132 9.27037L1.91295 9.26997C1.91286 9.26982 1.91277 9.26969 2.33398 9.00029C1.91277 8.73088 1.91286 8.73075 1.91295 8.7306L1.9132 8.7302L1.91391 8.7291L1.91615 8.72563L1.92388 8.71372L1.95223 8.67075C1.97678 8.63388 2.01257 8.58091 2.05903 8.51415C2.15192 8.38068 2.28771 8.19174 2.46193 7.9658C2.80973 7.51474 3.31394 6.91201 3.93903 6.30752C5.16935 5.11775 6.95801 3.83362 9.00065 3.83362C11.0433 3.83362 12.8319 5.11775 14.0623 6.30752C14.6874 6.91201 15.1916 7.51474 15.5394 7.9658C15.7136 8.19174 15.8494 8.38068 15.9423 8.51415C15.9887 8.58091 16.0245 8.63388 16.0491 8.67075L16.0774 8.71372L16.0852 8.72563L16.0874 8.7291L16.0881 8.7302L16.0883 8.7306ZM15.6673 9.00029L16.0885 8.73088C16.1936 8.89512 16.1936 9.10545 16.0885 9.26969L15.6673 9.00029ZM1.91277 8.73088L2.33398 9.00029L1.91277 9.26969C1.80772 9.10545 1.80772 8.89512 1.91277 8.73088ZM7.93924 7.93936C8.52503 7.35358 9.47478 7.35358 10.0606 7.93936C10.6463 8.52515 10.6463 9.4749 10.0606 10.0607C9.47478 10.6465 8.52503 10.6465 7.93924 10.0607C7.35346 9.4749 7.35346 8.52515 7.93924 7.93936ZM7.23213 7.23226C8.20844 6.25595 9.79136 6.25595 10.7677 7.23226C11.744 8.20856 11.744 9.79148 10.7677 10.7678C9.79136 11.7441 8.20844 11.7441 7.23213 10.7678C6.25583 9.79148 6.25583 8.20856 7.23213 7.23226Z" fill="black" fill-opacity="0.545"/>
</svg>
