<?xml version="1.0" encoding="iso-8859-1"?>
<!-- Generator: Adobe Illustrator 18.0.0, SVG Export Plug-In . SVG Version: 6.00 Build 0)  -->
<!DOCTYPE svg PUBLIC "-//W3C//DTD SVG 1.1//EN" "http://www.w3.org/Graphics/SVG/1.1/DTD/svg11.dtd">
<svg version="1.1" id="Capa_1" xmlns="http://www.w3.org/2000/svg" xmlns:xlink="http://www.w3.org/1999/xlink" x="0px" y="0px"
	 viewBox="0 0 473.5 473.5" style="enable-background:new 0 0 473.5 473.5;" xml:space="preserve">
<g>
	<path d="M441.967,156.502h-17c-7.857,0-14.25,6.393-14.25,14.25v4.25H383.5V4.25c0-2.348-1.902-4.25-4.25-4.25h-285
		C91.903,0,90,1.902,90,4.25v170.752H62.783v-4.25c0-7.857-6.393-14.25-14.25-14.25h-17c-7.857,0-14.25,6.393-14.25,14.25v46
		c0,7.857,6.393,14.25,14.25,14.25h17c7.857,0,14.25-6.393,14.25-14.25v-4.25H90v16.658c-24.857,1.922-44.5,22.748-44.5,48.09v148
		c0,26.605,21.646,48.25,48.25,48.25h286c26.605,0,48.25-21.645,48.25-48.25v-148c0-25.342-19.643-46.168-44.5-48.09v-16.658h27.217
		v4.25c0,7.857,6.393,14.25,14.25,14.25h17c7.857,0,14.25-6.393,14.25-14.25v-46C456.217,162.895,449.824,156.502,441.967,156.502z
		 M375,8.5V229H98.5V52.979h134.634c2.347,0,4.25-1.902,4.25-4.25c0-2.348-1.903-4.25-4.25-4.25H98.5V8.5H375z M58.533,204.002
		c-2.347,0-4.25,1.902-4.25,4.25v8.5c0,3.171-2.579,5.75-5.75,5.75h-17c-3.17,0-5.75-2.579-5.75-5.75v-46
		c0-3.171,2.58-5.75,5.75-5.75h17c3.171,0,5.75,2.579,5.75,5.75v8.5c0,2.348,1.903,4.25,4.25,4.25H90v20.5H58.533z M416.441,261.969
		h-81.313c-2.347,0-4.25,1.902-4.25,4.25c0,2.348,1.903,4.25,4.25,4.25h83.781c0.381,2.205,0.591,4.469,0.591,6.781v148
		c0,0.07-0.005,0.141-0.005,0.211h-37.869c-2.348,0-4.25,1.902-4.25,4.25c0,2.348,1.902,4.25,4.25,4.25h36.901
		C414.543,451.701,398.676,465,379.75,465h-286c-17.288,0-32.025-11.098-37.484-26.54h49.374c2.348,0,4.25-1.902,4.25-4.25
		c0-2.348-1.902-4.25-4.25-4.25H54.289c-0.184-1.546-0.289-3.115-0.289-4.71v-10.788h21.642c2.347,0,4.25-1.902,4.25-4.25
		c0-2.348-1.903-4.25-4.25-4.25H54V277.25c0-21.918,17.832-39.75,39.75-39.75h286C396.256,237.5,410.44,247.614,416.441,261.969z
		 M447.717,216.752c0,3.171-2.58,5.75-5.75,5.75h-17c-3.171,0-5.75-2.579-5.75-5.75v-8.5c0-2.348-1.903-4.25-4.25-4.25H383.5v-20.5
		h31.467c2.347,0,4.25-1.902,4.25-4.25v-8.5c0-3.171,2.579-5.75,5.75-5.75h17c3.17,0,5.75,2.579,5.75,5.75V216.752z"/>
	<path d="M142.5,113.25c0,2.348,1.903,4.25,4.25,4.25h180c2.348,0,4.25-1.902,4.25-4.25s-1.902-4.25-4.25-4.25h-180
		C144.403,109,142.5,110.902,142.5,113.25z"/>
	<path d="M326.75,147h-180c-2.347,0-4.25,1.902-4.25,4.25s1.903,4.25,4.25,4.25h180c2.348,0,4.25-1.902,4.25-4.25
		S329.098,147,326.75,147z"/>
	<path d="M326.75,185h-180c-2.347,0-4.25,1.902-4.25,4.25s1.903,4.25,4.25,4.25h180c2.348,0,4.25-1.902,4.25-4.25
		S329.098,185,326.75,185z"/>
	<path d="M121,304.912c0-10.614-8.636-19.25-19.25-19.25s-19.25,8.636-19.25,19.25c0,10.614,8.636,19.25,19.25,19.25
		S121,315.526,121,304.912z M101.75,315.662c-5.928,0-10.75-4.822-10.75-10.75s4.822-10.75,10.75-10.75
		c5.928,0,10.75,4.822,10.75,10.75S107.678,315.662,101.75,315.662z"/>
	<path d="M155.75,324.162c10.614,0,19.25-8.636,19.25-19.25c0-10.614-8.636-19.25-19.25-19.25s-19.25,8.636-19.25,19.25
		C136.5,315.526,145.136,324.162,155.75,324.162z M155.75,294.162c5.928,0,10.75,4.822,10.75,10.75s-4.822,10.75-10.75,10.75
		S145,310.84,145,304.912S149.822,294.162,155.75,294.162z"/>
	<path d="M209.75,324.162c10.614,0,19.25-8.636,19.25-19.25c0-10.614-8.636-19.25-19.25-19.25s-19.25,8.636-19.25,19.25
		C190.5,315.526,199.136,324.162,209.75,324.162z M209.75,294.162c5.928,0,10.75,4.822,10.75,10.75s-4.822,10.75-10.75,10.75
		S199,310.84,199,304.912S203.822,294.162,209.75,294.162z"/>
	<path d="M263.75,324.162c10.614,0,19.25-8.636,19.25-19.25c0-10.614-8.636-19.25-19.25-19.25c-10.614,0-19.25,8.636-19.25,19.25
		C244.5,315.526,253.136,324.162,263.75,324.162z M263.75,294.162c5.928,0,10.75,4.822,10.75,10.75s-4.822,10.75-10.75,10.75
		S253,310.84,253,304.912S257.822,294.162,263.75,294.162z"/>
	<path d="M298.5,304.912c0,10.614,8.636,19.25,19.25,19.25s19.25-8.636,19.25-19.25c0-10.614-8.636-19.25-19.25-19.25
		S298.5,294.298,298.5,304.912z M328.5,304.912c0,5.928-4.822,10.75-10.75,10.75S307,310.84,307,304.912s4.822-10.75,10.75-10.75
		S328.5,298.984,328.5,304.912z"/>
	<path d="M371.75,324.162c10.614,0,19.25-8.636,19.25-19.25c0-10.614-8.636-19.25-19.25-19.25s-19.25,8.636-19.25,19.25
		C352.5,315.526,361.136,324.162,371.75,324.162z M371.75,294.162c5.928,0,10.75,4.822,10.75,10.75s-4.822,10.75-10.75,10.75
		S361,310.84,361,304.912S365.822,294.162,371.75,294.162z"/>
	<path d="M148.753,353.412c0-10.614-8.636-19.25-19.25-19.25c-10.614,0-19.25,8.636-19.25,19.25c0,10.614,8.636,19.25,19.25,19.25
		C140.117,372.662,148.753,364.026,148.753,353.412z M129.503,364.162c-5.928,0-10.75-4.822-10.75-10.75s4.822-10.75,10.75-10.75
		c5.928,0,10.75,4.822,10.75,10.75S135.431,364.162,129.503,364.162z"/>
	<path d="M202.753,353.412c0-10.614-8.636-19.25-19.25-19.25c-10.614,0-19.25,8.636-19.25,19.25c0,10.614,8.636,19.25,19.25,19.25
		C194.117,372.662,202.753,364.026,202.753,353.412z M183.503,364.162c-5.928,0-10.75-4.822-10.75-10.75s4.822-10.75,10.75-10.75
		c5.928,0,10.75,4.822,10.75,10.75S189.431,364.162,183.503,364.162z"/>
	<path d="M256.753,353.412c0-10.614-8.636-19.25-19.25-19.25c-10.614,0-19.25,8.636-19.25,19.25c0,10.614,8.636,19.25,19.25,19.25
		C248.117,372.662,256.753,364.026,256.753,353.412z M237.503,364.162c-5.928,0-10.75-4.822-10.75-10.75s4.822-10.75,10.75-10.75
		c5.928,0,10.75,4.822,10.75,10.75S243.431,364.162,237.503,364.162z"/>
	<path d="M310.753,353.412c0-10.614-8.636-19.25-19.25-19.25c-10.614,0-19.25,8.636-19.25,19.25c0,10.614,8.636,19.25,19.25,19.25
		C302.117,372.662,310.753,364.026,310.753,353.412z M291.503,364.162c-5.928,0-10.75-4.822-10.75-10.75s4.822-10.75,10.75-10.75
		c5.928,0,10.75,4.822,10.75,10.75S297.431,364.162,291.503,364.162z"/>
	<path d="M326.253,353.412c0,10.614,8.636,19.25,19.25,19.25s19.25-8.636,19.25-19.25c0-10.614-8.636-19.25-19.25-19.25
		S326.253,342.798,326.253,353.412z M345.503,342.662c5.928,0,10.75,4.822,10.75,10.75s-4.822,10.75-10.75,10.75
		c-5.928,0-10.75-4.822-10.75-10.75S339.575,342.662,345.503,342.662z"/>
	<path d="M152.989,382.662c-10.614,0-19.25,8.636-19.25,19.25c0,10.614,8.636,19.25,19.25,19.25c10.614,0,19.25-8.636,19.25-19.25
		C172.239,391.298,163.604,382.662,152.989,382.662z M152.989,412.662c-5.928,0-10.75-4.822-10.75-10.75s4.822-10.75,10.75-10.75
		c5.928,0,10.75,4.822,10.75,10.75S158.917,412.662,152.989,412.662z"/>
	<path d="M206.989,382.662c-10.614,0-19.25,8.636-19.25,19.25c0,10.614,8.636,19.25,19.25,19.25c10.614,0,19.25-8.636,19.25-19.25
		C226.239,391.298,217.604,382.662,206.989,382.662z M206.989,412.662c-5.928,0-10.75-4.822-10.75-10.75s4.822-10.75,10.75-10.75
		c5.928,0,10.75,4.822,10.75,10.75S212.917,412.662,206.989,412.662z"/>
	<path d="M260.989,382.662c-10.614,0-19.25,8.636-19.25,19.25c0,10.614,8.636,19.25,19.25,19.25c10.614,0,19.25-8.636,19.25-19.25
		C280.239,391.298,271.604,382.662,260.989,382.662z M260.989,412.662c-5.928,0-10.75-4.822-10.75-10.75s4.822-10.75,10.75-10.75
		c5.928,0,10.75,4.822,10.75,10.75S266.917,412.662,260.989,412.662z"/>
	<path d="M314.989,382.662c-10.614,0-19.25,8.636-19.25,19.25c0,10.614,8.636,19.25,19.25,19.25c10.614,0,19.25-8.636,19.25-19.25
		C334.239,391.298,325.604,382.662,314.989,382.662z M314.989,412.662c-5.928,0-10.75-4.822-10.75-10.75s4.822-10.75,10.75-10.75
		c5.928,0,10.75,4.822,10.75,10.75S320.917,412.662,314.989,412.662z"/>
</g>
<g>
</g>
<g>
</g>
<g>
</g>
<g>
</g>
<g>
</g>
<g>
</g>
<g>
</g>
<g>
</g>
<g>
</g>
<g>
</g>
<g>
</g>
<g>
</g>
<g>
</g>
<g>
</g>
<g>
</g>
</svg>
